<?xml version="1.0" encoding="UTF-8"?>
<svg version="1.1" xmlns="http://www.w3.org/2000/svg" width="590" height="200">
<path d="M0 0 C1.31097656 -0.01611328 2.62195313 -0.03222656 3.97265625 -0.04882812 C20.03296181 -0.05688244 32.27204601 4.97540032 43.96484375 16.09375 C51.22873664 23.55467435 54.18344069 31.15032786 54.5625 41.625 C54.21321128 53.50081643 50.53200406 62.87278387 42.125 71.3125 C39.125 73.625 39.125 73.625 36.125 75.3125 C34.77073842 76.20818984 33.41657707 77.10403125 32.0625 78 C29.10662884 79.84954702 26.65698939 80.98137599 23.125 81.3125 C22.94736618 81.86316635 22.76973236 82.4138327 22.5867157 82.98118591 C20.82907186 88.35198027 18.88733656 93.6095349 16.76953125 98.84765625 C16.46303146 99.61178329 16.15653168 100.37591034 15.84074402 101.16319275 C14.87545264 103.56812429 13.90654709 105.97157969 12.9375 108.375 C12.2764515 110.02008539 11.61564211 111.66526688 10.95507812 113.31054688 C9.34824952 117.31249766 7.73652546 121.31242559 6.125 125.3125 C15.695 125.6425 25.265 125.9725 35.125 126.3125 C35.125 132.9125 35.125 139.5125 35.125 146.3125 C16.975 146.3125 -1.175 146.3125 -19.875 146.3125 C-19.875 125.62852692 -19.875 125.62852692 -16.41015625 117.91015625 C-16.0573912 117.05489853 -15.70462616 116.19964081 -15.34117126 115.31846619 C-14.235888 112.65714339 -13.08845973 110.01683768 -11.9375 107.375 C-11.17218131 105.55657683 -10.40979331 103.73691735 -9.65039062 101.91601562 C-7.99470423 97.95566896 -6.31198865 94.00818252 -4.60267639 90.07069397 C-3.9573915 88.51157234 -3.40859656 86.91328967 -2.875 85.3125 C-5.70892926 85.23075204 -8.54044819 85.17165015 -11.375 85.125 C-12.16648437 85.09986328 -12.95796875 85.07472656 -13.7734375 85.04882812 C-19.49630318 84.97846502 -23.62703857 86.01952602 -28.875 88.3125 C-28.38 89.3953125 -28.38 89.3953125 -27.875 90.5 C-26.79150842 93.54732006 -26.25461657 95.13303491 -26.875 98.3125 C-27.91559574 99.19321985 -28.98157786 100.04426883 -30.0625 100.875 C-31.7366377 102.30215594 -31.7366377 102.30215594 -32.875 104.3125 C-32.70801688 106.87764999 -32.70801688 106.87764999 -31.8125 109.6484375 C-31.363302 111.24715698 -31.363302 111.24715698 -30.9050293 112.87817383 C-30.56511963 114.01150146 -30.22520996 115.1448291 -29.875 116.3125 C-29.54218018 117.45420654 -29.20936035 118.59591309 -28.86645508 119.7722168 C-27.4637151 124.53597075 -26.01896908 129.28655076 -24.57226562 134.03710938 C-24.22486328 135.19146484 -23.87746094 136.34582031 -23.51953125 137.53515625 C-23.20346924 138.57422119 -22.88740723 139.61328613 -22.56176758 140.68383789 C-21.875 143.3125 -21.875 143.3125 -21.875 146.3125 C-29.465 146.3125 -37.055 146.3125 -44.875 146.3125 C-46.03 142.88875 -47.185 139.465 -48.375 135.9375 C-48.74044922 134.85936035 -49.10589844 133.7812207 -49.48242188 132.67041016 C-49.9087793 131.39883057 -49.9087793 131.39883057 -50.34375 130.1015625 C-50.63701172 129.23225098 -50.93027344 128.36293945 -51.23242188 127.46728516 C-51.875 125.3125 -51.875 125.3125 -51.875 123.3125 C-52.535 122.9825 -53.195 122.6525 -53.875 122.3125 C-54.25390625 120.3515625 -54.25390625 120.3515625 -54.4375 117.9375 C-54.66253088 115.11772535 -54.97054568 113.02586297 -55.875 110.3125 C-57.855 109.8175 -57.855 109.8175 -59.875 109.3125 C-60.205 121.5225 -60.535 133.7325 -60.875 146.3125 C-68.135 146.3125 -75.395 146.3125 -82.875 146.3125 C-82.875 130.8025 -82.875 115.2925 -82.875 99.3125 C-86.02309738 100.88654869 -86.26177267 103.58363689 -87.4375 106.8125 C-89.78580617 113.22330617 -89.78580617 113.22330617 -90.875 114.3125 C-93.80037765 114.59560106 -96.02997492 114.78667085 -98.875 114.3125 C-101.523138 111.91262493 -101.8310461 110.04029474 -102.04296875 106.53125 C-102.0606727 103.78359698 -102.00476542 101.05679825 -101.875 98.3125 C-105.56563772 97.79269187 -108.40326116 97.88949077 -111.875 99.3125 C-118.68436508 107.7998872 -119.03446894 115.38559626 -119.875 126.3125 C-110.305 126.3125 -100.735 126.3125 -90.875 126.3125 C-90.875 132.9125 -90.875 139.5125 -90.875 146.3125 C-108.035 146.3125 -125.195 146.3125 -142.875 146.3125 C-143.205 136.4125 -143.535 126.5125 -143.875 116.3125 C-145.195 115.9825 -146.515 115.6525 -147.875 115.3125 C-147.875 114.6525 -147.875 113.9925 -147.875 113.3125 C-148.8340625 112.8484375 -148.8340625 112.8484375 -149.8125 112.375 C-151.875 111.3125 -151.875 111.3125 -152.875 110.3125 C-154.22499596 101.11324183 -150.97951477 92.84458989 -145.8203125 85.31298828 C-143.08274489 80.51911292 -143.27185069 75.75133498 -143.265625 70.34765625 C-143.24999512 69.43077026 -143.23436523 68.51388428 -143.21826172 67.56921387 C-143.16598986 64.17140243 -143.14745189 60.77313932 -143.125 57.375 C-143.0425 49.764375 -142.96 42.15375 -142.875 34.3125 C-125.715 34.3125 -108.555 34.3125 -90.875 34.3125 C-90.875 40.9125 -90.875 47.5125 -90.875 54.3125 C-100.445 54.3125 -110.015 54.3125 -119.875 54.3125 C-119.875 62.2325 -119.875 70.1525 -119.875 78.3125 C-111.73066724 77.51331915 -111.73066724 77.51331915 -106.875 72.3125 C-101.79712244 73.40061662 -99.42104099 75.45746271 -96.171875 79.265625 C-94.5511351 81.82366026 -93.740527 84.42196642 -92.875 87.3125 C-92.39289063 86.55324219 -91.91078125 85.79398437 -91.4140625 85.01171875 C-90.78242188 84.01785156 -90.15078125 83.02398437 -89.5 82 C-88.87351562 81.01386719 -88.24703125 80.02773437 -87.6015625 79.01171875 C-86.37848387 77.09962071 -85.1340644 75.2010966 -83.875 73.3125 C-83.63355837 70.34365535 -83.50192903 67.460632 -83.4609375 64.48828125 C-83.44157135 63.62688034 -83.4222052 62.76547943 -83.4022522 61.87797546 C-83.3424797 59.12708432 -83.29608052 56.37615127 -83.25 53.625 C-83.21181806 51.75974739 -83.1727662 49.89451237 -83.1328125 48.02929688 C-83.03514256 43.45712286 -82.9555564 38.88513587 -82.875 34.3125 C-75.615 34.3125 -68.355 34.3125 -60.875 34.3125 C-60.545 44.8725 -60.215 55.4325 -59.875 66.3125 C-54.04021589 56.41149497 -54.04021589 56.41149497 -54.125 47.125 C-55.4870031 35.95902866 -52.26393255 26.71326442 -45.6875 17.625 C-34.13795014 3.49523155 -17.28453063 -0.04223981 0 0 Z M-138.875 36.3125 C-138.875 48.1925 -138.875 60.0725 -138.875 72.3125 C-136.04171013 69.47921013 -135.1558625 67.95803172 -133.875 64.3125 C-131.895 64.3125 -129.915 64.3125 -127.875 64.3125 C-126.29238483 70.08904536 -125.39985539 75.60935543 -128.3671875 81.046875 C-129.58635172 82.75674017 -130.84509866 84.43933246 -132.1484375 86.0859375 C-133.74280827 88.1420265 -134.79206752 89.96174413 -135.875 92.3125 C-136.63816528 93.53259766 -136.63816528 93.53259766 -137.41674805 94.77734375 C-139.40343641 99.59355797 -139.24983268 103.80486735 -139.16796875 108.9609375 C-139.16372391 109.97346588 -139.15947906 110.98599426 -139.15510559 112.02920532 C-139.13837302 115.24891248 -139.10073026 118.46798344 -139.0625 121.6875 C-139.04744618 123.87629302 -139.033759 126.06509589 -139.02148438 128.25390625 C-138.99104481 133.60721047 -138.93231187 138.95914685 -138.875 144.3125 C-124.025 144.3125 -109.175 144.3125 -93.875 144.3125 C-93.875 139.3625 -93.875 134.4125 -93.875 129.3125 C-103.445 129.3125 -113.015 129.3125 -122.875 129.3125 C-122.6875 121.625 -122.6875 121.625 -122.60473633 119.23168945 C-122.5502073 114.59437656 -123.31304932 112.10057318 -125.875 108.3125 C-127.65866216 102.52232033 -125.58632875 98.48734788 -122.875 93.3125 C-120.87342569 90.31013853 -118.77535838 87.42725381 -116.58203125 84.5625 C-114.86025523 82.43661537 -114.86025523 82.43661537 -113.875 80.3125 C-116.845 80.3125 -119.815 80.3125 -122.875 80.3125 C-122.875 70.7425 -122.875 61.1725 -122.875 51.3125 C-113.305 51.3125 -103.735 51.3125 -93.875 51.3125 C-93.875 46.3625 -93.875 41.4125 -93.875 36.3125 C-108.725 36.3125 -123.575 36.3125 -138.875 36.3125 Z M-79.875 36.3125 C-79.875 47.2025 -79.875 58.0925 -79.875 69.3125 C-75.255 69.3125 -70.635 69.3125 -65.875 69.3125 C-65.215 69.6425 -64.555 69.9725 -63.875 70.3125 C-63.875 59.0925 -63.875 47.8725 -63.875 36.3125 C-69.155 36.3125 -74.435 36.3125 -79.875 36.3125 Z M-51.875 57.3125 C-53.741971 61.09799368 -55.59137066 64.8918041 -57.4375 68.6875 C-57.97052734 69.76773438 -58.50355469 70.84796875 -59.05273438 71.9609375 C-59.55224609 72.9921875 -60.05175781 74.0234375 -60.56640625 75.0859375 C-61.03248291 76.03903809 -61.49855957 76.99213867 -61.97875977 77.97412109 C-62.27451904 78.74578613 -62.57027832 79.51745117 -62.875 80.3125 C-62.545 80.9725 -62.215 81.6325 -61.875 82.3125 C-61.17375 81.405 -60.4725 80.4975 -59.75 79.5625 C-57.86791067 77.27595022 -56.0703439 75.63511471 -53.5625 74.0625 C-52.675625 73.485 -51.78875 72.9075 -50.875 72.3125 C-50.875 71.6525 -50.875 70.9925 -50.875 70.3125 C-48.895 69.6525 -46.915 68.9925 -44.875 68.3125 C-46.68809003 64.53522911 -48.7823259 60.93980178 -50.875 57.3125 C-51.205 57.3125 -51.535 57.3125 -51.875 57.3125 Z M-70.8125 78.6875 C-73.44872999 81.13348659 -75.87943351 83.31545568 -78.875 85.3125 C-79.90944628 88.41583883 -79.99583424 90.54126249 -79.98852539 93.79370117 C-79.98844986 94.91463669 -79.98837433 96.0355722 -79.98829651 97.19047546 C-79.98313522 98.39992325 -79.97797394 99.60937103 -79.97265625 100.85546875 C-79.9712413 102.09420242 -79.96982635 103.3329361 -79.96836853 104.60920715 C-79.96371602 107.89881537 -79.9547339 111.1883746 -79.94366455 114.47796631 C-79.93342629 117.83621623 -79.92886574 121.19447333 -79.92382812 124.55273438 C-79.91279145 131.1393446 -79.8955229 137.72591278 -79.875 144.3125 C-74.595 144.3125 -69.315 144.3125 -63.875 144.3125 C-63.63270365 138.99302851 -63.41782655 133.67341038 -63.22802734 128.35180664 C-63.1596694 126.54258891 -63.08389357 124.73363534 -63.00048828 122.92504883 C-62.88172102 120.32147008 -62.78987961 117.71809929 -62.703125 115.11328125 C-62.66060608 114.30788406 -62.61808716 113.50248688 -62.57427979 112.67268372 C-62.4352843 107.47195877 -63.18828699 105.2324641 -66.875 101.3125 C-67.15234375 98.375 -67.15234375 98.375 -66.8125 95.3125 C-66.67134766 93.7965625 -66.67134766 93.7965625 -66.52734375 92.25 C-65.875 89.3125 -65.875 89.3125 -64.296875 86.76953125 C-62.57591144 83.79566839 -62.69567119 82.35337827 -63.1875 79 C-63.30738281 78.11699219 -63.42726563 77.23398438 -63.55078125 76.32421875 C-63.65777344 75.66035156 -63.76476562 74.99648437 -63.875 74.3125 C-67.09512795 74.3125 -68.51556484 76.54909047 -70.8125 78.6875 Z M-40.875 79.3125 C-39.875 83.3125 -39.875 83.3125 -39.875 83.3125 Z M-53.875 89.3125 C-56.17514759 92.23362751 -56.17514759 92.23362751 -56.875 95.3125 C-56.18857916 98.62720658 -56.18857916 98.62720658 -54.875 101.3125 C-52.93443567 101.110922 -50.99739852 100.87518261 -49.0625 100.625 C-47.98355469 100.49738281 -46.90460938 100.36976562 -45.79296875 100.23828125 C-42.75475681 99.53834512 -42.75475681 99.53834512 -40.875 97.15625 C-39.51847797 93.29864047 -40.33861506 91.3154174 -41.6875 87.5 C-42.28498047 85.75783203 -42.28498047 85.75783203 -42.89453125 83.98046875 C-43.21808594 83.10003906 -43.54164063 82.21960938 -43.875 81.3125 C-47.20394406 81.3125 -51.62225657 87.07997868 -53.875 89.3125 Z M9.125 84 C7.8875 84.12761719 6.65 84.25523438 5.375 84.38671875 C2.04479425 84.97273556 2.04479425 84.97273556 0.62719727 87.38598633 C-1.16220887 90.87202749 -2.69021037 94.43398822 -4.16015625 98.0625 C-4.46191269 98.79823242 -4.76366913 99.53396484 -5.0745697 100.29199219 C-6.03268575 102.63062569 -6.98514867 104.97151389 -7.9375 107.3125 C-8.58101271 108.88556705 -9.22488935 110.45848528 -9.86914062 112.03125 C-14.63866536 123.68546992 -16.875 130.74949014 -16.875 144.3125 C-0.705 144.3125 15.465 144.3125 32.125 144.3125 C32.125 139.3625 32.125 134.4125 32.125 129.3125 C21.895 129.3125 11.665 129.3125 1.125 129.3125 C2.25679687 126.49460938 3.38859375 123.67671875 4.5546875 120.7734375 C5.65390191 118.03320806 6.75251663 115.29273891 7.85107422 112.55224609 C8.61281736 110.65290611 9.37518027 108.75381456 10.13818359 106.85498047 C11.2369974 104.12012315 12.33355362 101.38436986 13.4296875 98.6484375 C13.93917435 97.38246231 13.93917435 97.38246231 14.45895386 96.09091187 C16.14843905 91.86759743 17.74461844 87.64996562 19.125 83.3125 C15.74003849 83.3125 12.48924592 83.61801791 9.125 84 Z M-104.875 85.3125 C-107.89204885 88.5124003 -109.37390042 90.92787866 -109.875 95.3125 C-107.565 95.3125 -105.255 95.3125 -102.875 95.3125 C-102.875 92.0125 -102.875 88.7125 -102.875 85.3125 C-103.535 85.3125 -104.195 85.3125 -104.875 85.3125 Z M-38.875 88.3125 C-37.885 89.7975 -37.885 89.7975 -36.875 91.3125 C-36.215 90.3225 -35.555 89.3325 -34.875 88.3125 C-36.195 88.3125 -37.515 88.3125 -38.875 88.3125 Z M-51.875 108.3125 C-51.545 110.9525 -51.215 113.5925 -50.875 116.3125 C-49.09793791 113.64690687 -47.99951727 111.2844385 -46.875 108.3125 C-48.525 108.3125 -50.175 108.3125 -51.875 108.3125 Z M-36.875 111.3125 C-37.27332031 112.44429688 -37.67164063 113.57609375 -38.08203125 114.7421875 C-38.61666251 116.22414783 -39.15184766 117.70590843 -39.6875 119.1875 C-39.94853516 119.93386719 -40.20957031 120.68023437 -40.47851562 121.44921875 C-40.73955078 122.16464844 -41.00058594 122.88007812 -41.26953125 123.6171875 C-41.62301636 124.6069458 -41.62301636 124.6069458 -41.98364258 125.61669922 C-42.875 127.3125 -42.875 127.3125 -45.875 129.3125 C-45.58959486 130.87615584 -45.29636502 132.43838434 -45 134 C-44.83757812 134.87011719 -44.67515625 135.74023438 -44.5078125 136.63671875 C-43.83863154 139.76044526 -43.83863154 139.76044526 -41.875 144.3125 C-36.595 144.3125 -31.315 144.3125 -25.875 144.3125 C-27.25455352 136.74585797 -29.20386806 129.52392157 -31.5 122.1875 C-31.98726562 120.6096875 -31.98726562 120.6096875 -32.484375 119 C-33.27685314 116.43610014 -34.07379008 113.87368184 -34.875 111.3125 C-35.535 111.3125 -36.195 111.3125 -36.875 111.3125 Z " fill="#F2DB1E" transform="translate(530.875,1.6875)"/>
<path d="M0 0 C5.98206853 4.42698153 8.17243984 10.47500733 9.7109375 17.57421875 C10.21483936 21.63478716 10.22079909 25.60517114 10.17578125 29.69140625 C10.17126953 30.47515625 10.16675781 31.25890625 10.16210938 32.06640625 C10.15042218 33.98310639 10.13249033 35.89976673 10.11328125 37.81640625 C7.14328125 37.81640625 4.17328125 37.81640625 1.11328125 37.81640625 C1.13390625 39.17765625 1.15453125 40.53890625 1.17578125 41.94140625 C1.18943308 44.84014572 1.02965784 47.25961032 0.48828125 50.12890625 C0.05549091 53.23057037 0.68486882 54.13813295 2.11328125 56.81640625 C1.92578125 59.00390625 1.92578125 59.00390625 1.11328125 60.81640625 C-0.37171875 61.31140625 -0.37171875 61.31140625 -1.88671875 61.81640625 C-2.38171875 63.30140625 -2.38171875 63.30140625 -2.88671875 64.81640625 C0.41328125 64.81640625 3.71328125 64.81640625 7.11328125 64.81640625 C7.22168335 63.59304565 7.22168335 63.59304565 7.33227539 62.3449707 C8.1597327 58.60653981 9.51678908 56.00448838 11.34864807 52.68757629 C17.76126487 40.84531102 18.37658865 30.37434206 18.17578125 17.12890625 C18.17886638 15.14386969 18.1860085 13.15883517 18.19726562 11.17382812 C18.22321585 6.38501428 18.16682571 1.60756473 18.11328125 -3.18359375 C25.37328125 -3.18359375 32.63328125 -3.18359375 40.11328125 -3.18359375 C40.44328125 7.70640625 40.77328125 18.59640625 41.11328125 29.81640625 C42.18449219 27.51800781 43.25570312 25.21960938 44.359375 22.8515625 C45.39474093 20.63395125 46.43085394 18.41669055 47.46704102 16.19946289 C48.18852761 14.65458115 48.90923311 13.10933437 49.62915039 11.5637207 C50.66218758 9.34621003 51.69799771 7.13001372 52.734375 4.9140625 C53.0573204 4.21926285 53.38026581 3.5244632 53.71299744 2.80860901 C55.99940954 -2.06972204 55.99940954 -2.06972204 57.11328125 -3.18359375 C58.82100483 -3.27073206 60.53226774 -3.29059382 62.2421875 -3.28125 C63.79389648 -3.27641602 63.79389648 -3.27641602 65.37695312 -3.27148438 C66.46556641 -3.26310547 67.55417969 -3.25472656 68.67578125 -3.24609375 C70.31450195 -3.23932617 70.31450195 -3.23932617 71.98632812 -3.23242188 C74.6953662 -3.22059201 77.40429724 -3.20410918 80.11328125 -3.18359375 C78.84866705 -0.45140257 77.57723814 2.2772451 76.30078125 5.00390625 C75.71031006 6.27331055 75.71031006 6.27331055 75.10791016 7.56835938 C72.89635072 12.26136929 70.579558 16.84723086 68.03125 21.3671875 C67.2719519 22.73290894 67.2719519 22.73290894 66.49731445 24.1262207 C65.51442309 25.87844202 64.50995247 27.6187867 63.48120117 29.34448242 C59.88775073 35.80121459 59.74308018 40.6001283 61.11328125 47.81640625 C61.77328125 47.81640625 62.43328125 47.81640625 63.11328125 47.81640625 C63.34789062 46.98882812 63.5825 46.16125 63.82421875 45.30859375 C65.35075828 41.17305939 67.42299298 37.67480859 69.73828125 33.94140625 C70.15851563 33.25304687 70.57875 32.5646875 71.01171875 31.85546875 C72.04020597 30.17248967 73.07600225 28.49398093 74.11328125 26.81640625 C78.98828125 27.69140625 78.98828125 27.69140625 80.11328125 28.81640625 C80.29503906 27.65882812 80.47679687 26.50125 80.6640625 25.30859375 C80.91745858 23.76944717 81.17139344 22.23038923 81.42578125 20.69140625 C81.54373047 19.93085937 81.66167969 19.1703125 81.78320312 18.38671875 C83.29193916 9.4116736 86.78460874 3.99665544 94.17578125 -1.43359375 C101.50418973 -5.79945412 111.93965304 -5.23167069 120.140625 -3.5703125 C127.20350091 -1.09993834 131.86282554 3.33156951 135.20703125 9.99609375 C137.98905738 17.6466656 137.38167432 25.80437599 137.11328125 33.81640625 C140.08328125 34.14640625 143.05328125 34.47640625 146.11328125 34.81640625 C146.11328125 22.27640625 146.11328125 9.73640625 146.11328125 -3.18359375 C163.27328125 -3.18359375 180.43328125 -3.18359375 198.11328125 -3.18359375 C198.11328125 3.41640625 198.11328125 10.01640625 198.11328125 16.81640625 C188.21328125 16.81640625 178.31328125 16.81640625 168.11328125 16.81640625 C168.11328125 22.75640625 168.11328125 28.69640625 168.11328125 34.81640625 C171.46326646 33.69974451 171.90668347 33.069457 173.80078125 30.25390625 C174.23777344 29.61324219 174.67476563 28.97257812 175.125 28.3125 C175.45113281 27.81878906 175.77726562 27.32507813 176.11328125 26.81640625 C178.48828125 27.06640625 178.48828125 27.06640625 181.11328125 27.81640625 C182.42578125 29.87890625 182.42578125 29.87890625 183.11328125 31.81640625 C184.24765625 31.65140625 185.38203125 31.48640625 186.55078125 31.31640625 C197.98764406 29.93504449 197.98764406 29.93504449 202.67578125 31.87890625 C204.83469215 34.78874268 204.37812679 37.30720285 204.11328125 40.81640625 C199.84711809 41.95404976 196.54841814 42.81640625 192.11328125 42.81640625 C192.11328125 48.75640625 192.11328125 54.69640625 192.11328125 60.81640625 C182.21328125 61.31140625 182.21328125 61.31140625 172.11328125 61.81640625 C170.34295089 66.24223214 169.01696271 69.58090087 168.796875 74.265625 C168.75876709 75.02963623 168.72065918 75.79364746 168.68139648 76.58081055 C168.61674194 78.02774292 168.61674194 78.02774292 168.55078125 79.50390625 C168.40640625 82.57703125 168.26203125 85.65015625 168.11328125 88.81640625 C178.01328125 88.81640625 187.91328125 88.81640625 198.11328125 88.81640625 C198.11328125 95.41640625 198.11328125 102.01640625 198.11328125 108.81640625 C180.95328125 108.81640625 163.79328125 108.81640625 146.11328125 108.81640625 C145.78328125 95.28640625 145.45328125 81.75640625 145.11328125 67.81640625 C143.13328125 68.80640625 143.13328125 68.80640625 141.11328125 69.81640625 C141.77328125 70.14640625 142.43328125 70.47640625 143.11328125 70.81640625 C142.30078125 72.75390625 142.30078125 72.75390625 141.11328125 74.81640625 C140.12328125 75.14640625 139.13328125 75.47640625 138.11328125 75.81640625 C138.07589844 76.72261719 138.03851563 77.62882812 138 78.5625 C137.39407038 89.7900194 136.33724759 97.64184359 128.32421875 105.9296875 C120.78172283 112.36612836 110.48929941 111.53763842 101.11328125 110.81640625 C94.59771851 109.48235928 89.97535219 106.21049745 85.92578125 101.00390625 C82.46753686 94.92216612 81.97030325 89.59154229 81.73461914 82.73071289 C81.55876808 73.71461188 81.55876808 73.71461188 77.8671875 65.7890625 C75.27590541 63.94996679 73.17666368 62.65548507 70.11328125 61.81640625 C69.12328125 62.14640625 68.13328125 62.47640625 67.11328125 62.81640625 C69.48747168 72.84158128 72.36815971 82.69466781 75.30078125 92.56640625 C75.76910986 94.14967167 76.23721037 95.73300458 76.70507812 97.31640625 C77.83810579 101.1506521 78.97577968 104.98347413 80.11328125 108.81640625 C72.19328125 108.81640625 64.27328125 108.81640625 56.11328125 108.81640625 C54.38078125 103.24765625 54.38078125 103.24765625 52.61328125 97.56640625 C52.24783203 96.40206055 51.88238281 95.23771484 51.50585938 94.03808594 C51.07950195 92.65218262 51.07950195 92.65218262 50.64453125 91.23828125 C50.35126953 90.2956543 50.05800781 89.35302734 49.75585938 88.38183594 C49.11328125 85.81640625 49.11328125 85.81640625 49.11328125 81.81640625 C48.16453125 81.69265625 47.21578125 81.56890625 46.23828125 81.44140625 C43.11328125 80.81640625 43.11328125 80.81640625 41.11328125 78.81640625 C40.78328125 88.71640625 40.45328125 98.61640625 40.11328125 108.81640625 C32.85328125 108.81640625 25.59328125 108.81640625 18.11328125 108.81640625 C17.61828125 88.02640625 17.61828125 88.02640625 17.11328125 66.81640625 C16.78328125 69.12640625 16.45328125 71.43640625 16.11328125 73.81640625 C15.29988281 74.450625 14.48648438 75.08484375 13.6484375 75.73828125 C10.10502637 78.64289561 10.04837705 81.75530702 9.55078125 86.06640625 C8.18605257 95.28610109 6.38310708 101.40266775 -0.91015625 107.58984375 C-6.28092286 110.92269102 -11.63219615 111.18117332 -17.76171875 111.19140625 C-18.52613281 111.21589844 -19.29054688 111.24039063 -20.078125 111.265625 C-27.23494245 111.30207738 -32.31707574 109.04343019 -37.69921875 104.37890625 C-43.49224856 97.59278562 -45.20261635 91.19253335 -45.08203125 82.35546875 C-45.07920135 81.56490082 -45.07637146 80.77433289 -45.07345581 79.95980835 C-45.0623283 77.45351541 -45.03723801 74.9475898 -45.01171875 72.44140625 C-45.00167933 70.73438019 -44.99255516 69.02734848 -44.984375 67.3203125 C-44.96241338 63.15220385 -44.92793546 58.98436717 -44.88671875 54.81640625 C-45.02207031 55.595 -45.15742188 56.37359375 -45.296875 57.17578125 C-45.88671875 59.81640625 -45.88671875 59.81640625 -47.32421875 62.06640625 C-49.15296946 65.28500749 -49.76561186 68.21940099 -50.45703125 71.828125 C-50.88671875 73.81640625 -50.88671875 73.81640625 -51.88671875 75.81640625 C-56.35684955 75.64447814 -58.2785465 75.47019142 -61.38671875 72.12890625 C-63.09719918 68.35159529 -63.04476732 66.73595526 -61.88671875 62.81640625 C-61.55671875 62.15640625 -61.22671875 61.49640625 -60.88671875 60.81640625 C-67.43301108 61.21224027 -67.43301108 61.21224027 -73.69921875 62.94140625 C-75.88671875 63.81640625 -75.88671875 63.81640625 -80.88671875 62.81640625 C-80.88671875 71.39640625 -80.88671875 79.97640625 -80.88671875 88.81640625 C-71.31671875 88.81640625 -61.74671875 88.81640625 -51.88671875 88.81640625 C-51.88671875 95.41640625 -51.88671875 102.01640625 -51.88671875 108.81640625 C-69.04671875 108.81640625 -86.20671875 108.81640625 -103.88671875 108.81640625 C-104.19921875 91.56640625 -104.19921875 91.56640625 -104.2746582 86.13964844 C-104.30695503 84.71416618 -104.34032973 83.28870776 -104.375 81.86328125 C-104.3812439 81.12803223 -104.38748779 80.3927832 -104.3939209 79.63525391 C-104.51456226 75.33895919 -105.05195914 73.04228189 -107.88671875 69.81640625 C-107.63017435 66.31029946 -106.86812535 64.78851615 -104.88671875 61.81640625 C-104.55692655 58.88456596 -104.55692655 58.88456596 -104.56787109 55.5090332 C-104.5480014 54.20791092 -104.52813171 52.90678864 -104.50765991 51.5662384 C-104.49578344 50.14572316 -104.48412059 48.72520613 -104.47265625 47.3046875 C-104.4539464 45.85164792 -104.43437313 44.39861922 -104.41397095 42.94560242 C-104.36262411 39.12342748 -104.32301222 35.3012173 -104.28582764 31.47888184 C-104.2387655 26.89157422 -104.17715679 22.30444179 -104.11798096 17.71727753 C-104.02973752 10.75039104 -103.95999609 3.78353866 -103.88671875 -3.18359375 C-86.72671875 -3.18359375 -69.56671875 -3.18359375 -51.88671875 -3.18359375 C-51.88671875 3.41640625 -51.88671875 10.01640625 -51.88671875 16.81640625 C-61.45671875 16.81640625 -71.02671875 16.81640625 -80.88671875 16.81640625 C-80.55671875 20.77640625 -80.22671875 24.73640625 -79.88671875 28.81640625 C-77.90671875 28.81640625 -75.92671875 28.81640625 -73.88671875 28.81640625 C-72.20703125 30.42578125 -72.20703125 30.42578125 -71.01171875 32.56640625 C-70.60179687 33.2625 -70.191875 33.95859375 -69.76953125 34.67578125 C-68.88671875 36.81640625 -68.88671875 36.81640625 -68.88671875 40.81640625 C-65.58671875 40.15640625 -62.28671875 39.49640625 -58.88671875 38.81640625 C-58.88671875 38.15640625 -58.88671875 37.49640625 -58.88671875 36.81640625 C-57.68701121 36.13433902 -56.4763667 35.47149728 -55.26171875 34.81640625 C-54.58882812 34.44515625 -53.9159375 34.07390625 -53.22265625 33.69140625 C-50.34478839 32.61340892 -47.93472867 32.67666941 -44.88671875 32.81640625 C-44.92152344 31.69363281 -44.95632812 30.57085937 -44.9921875 29.4140625 C-45.19724725 20.04408737 -45.23335413 12.27018243 -40.19921875 4.06640625 C-29.7112914 -6.1380636 -12.43882414 -7.80323751 0 0 Z M-99.88671875 -1.18359375 C-99.88671875 16.96640625 -99.88671875 35.11640625 -99.88671875 53.81640625 C-97.90671875 51.34140625 -97.90671875 51.34140625 -95.88671875 48.81640625 C-95.2525 48.02878906 -94.61828125 47.24117187 -93.96484375 46.4296875 C-93.3615625 45.67042969 -92.75828125 44.91117188 -92.13671875 44.12890625 C-91.523125 43.36191406 -90.90953125 42.59492187 -90.27734375 41.8046875 C-88.6956727 39.94764245 -88.6956727 39.94764245 -88.88671875 37.81640625 C-88.24734375 37.50703125 -87.60796875 37.19765625 -86.94921875 36.87890625 C-84.95061054 35.98188995 -84.95061054 35.98188995 -83.88671875 34.81640625 C-83.79986272 33.2546788 -83.77969656 31.68911281 -83.7890625 30.125 C-83.79156006 29.27478271 -83.79405762 28.42456543 -83.79663086 27.54858398 C-83.80573486 26.46134033 -83.81483887 25.37409668 -83.82421875 24.25390625 C-83.85515625 19.08734375 -83.85515625 19.08734375 -83.88671875 13.81640625 C-74.31671875 13.81640625 -64.74671875 13.81640625 -54.88671875 13.81640625 C-54.88671875 8.86640625 -54.88671875 3.91640625 -54.88671875 -1.18359375 C-69.73671875 -1.18359375 -84.58671875 -1.18359375 -99.88671875 -1.18359375 Z M-36.88671875 5.81640625 C-40.47826102 10.99209679 -42.01120977 15.48817327 -42.01953125 21.73046875 C-42.02082031 22.65601562 -42.02210938 23.5815625 -42.0234375 24.53515625 C-42.01957031 25.49421875 -42.01570313 26.45328125 -42.01171875 27.44140625 C-42.01558594 28.40820312 -42.01945312 29.375 -42.0234375 30.37109375 C-42.02214844 31.2940625 -42.02085937 32.21703125 -42.01953125 33.16796875 C-42.01840332 34.01182129 -42.01727539 34.85567383 -42.01611328 35.72509766 C-42.01987925 37.87602291 -42.01987925 37.87602291 -40.88671875 39.81640625 C-40.65338542 46.34973958 -40.65338542 46.34973958 -41.88671875 48.81640625 C-41.97097969 50.48386685 -41.99397018 52.15465812 -41.984375 53.82421875 C-41.98115234 54.81035156 -41.97792969 55.79648438 -41.97460938 56.8125 C-41.96623047 57.84503906 -41.95785156 58.87757812 -41.94921875 59.94140625 C-41.94470703 60.98167969 -41.94019531 62.02195313 -41.93554688 63.09375 C-41.92373827 65.66802587 -41.9072695 68.24218771 -41.88671875 70.81640625 C-41.43752075 69.91100098 -41.43752075 69.91100098 -40.97924805 68.98730469 C-39.62734919 66.30102879 -38.18071199 63.68359797 -36.69921875 61.06640625 C-36.14878906 60.0815625 -35.59835938 59.09671875 -35.03125 58.08203125 C-32.88671875 54.81640625 -32.88671875 54.81640625 -31.11157227 53.16113281 C-26.65651316 48.95360846 -25.40827432 45.99966715 -25.125 39.83203125 C-25.11576427 37.24338784 -25.14139321 34.6544202 -25.19921875 32.06640625 C-25.23364819 29.46762085 -25.2513301 26.86854437 -25.25 24.26953125 C-25.27360596 23.12645508 -25.29721191 21.98337891 -25.3215332 20.80566406 C-24.79205373 17.16560419 -23.75650488 16.03599605 -20.88671875 13.81640625 C-17.97886994 13.10758322 -15.94417975 13.47668836 -12.88671875 13.81640625 C-10.45432238 15.51069613 -9.95078478 16.47334301 -9.40234375 19.41015625 C-9.3146875 20.36921875 -9.22703125 21.32828125 -9.13671875 22.31640625 C-8.69737567 26.25376443 -8.69737567 26.25376443 -6.2421875 29.0625 C-4.47505123 29.69953283 -2.68139662 30.26168763 -0.88671875 30.81640625 C0.05078125 33.00390625 0.05078125 33.00390625 0.11328125 34.81640625 C2.42328125 34.81640625 4.73328125 34.81640625 7.11328125 34.81640625 C7.40964058 25.23412114 7.5796889 15.11026614 2.11328125 6.81640625 C-2.49248205 2.06206994 -6.66096144 -0.90822422 -13.41015625 -1.484375 C-22.87188361 -1.51316322 -29.74222934 -1.13498885 -36.88671875 5.81640625 Z M21.11328125 -1.18359375 C21.11328125 10.03640625 21.11328125 21.25640625 21.11328125 32.81640625 C22.43328125 31.16640625 23.75328125 29.51640625 25.11328125 27.81640625 C27.86328125 27.00390625 27.86328125 27.00390625 30.11328125 26.81640625 C30.44328125 28.79640625 30.77328125 30.77640625 31.11328125 32.81640625 C34.08328125 32.32140625 34.08328125 32.32140625 37.11328125 31.81640625 C37.11328125 20.92640625 37.11328125 10.03640625 37.11328125 -1.18359375 C31.83328125 -1.18359375 26.55328125 -1.18359375 21.11328125 -1.18359375 Z M59.11328125 -1.18359375 C57.29542888 2.69278441 55.47966299 6.57000919 53.66894531 10.44970703 C53.05326402 11.76731667 52.43641994 13.08438365 51.81835938 14.40087891 C50.9265689 16.30096796 50.0390762 18.20301492 49.15234375 20.10546875 C48.61818848 21.24709473 48.0840332 22.3887207 47.53369141 23.56494141 C46.20300186 26.61102654 45.10824324 29.6468016 44.11328125 32.81640625 C45.76328125 33.14640625 47.41328125 33.47640625 49.11328125 33.81640625 C49.82795983 39.77206111 49.82795983 39.77206111 47.953125 42.51171875 C44.98236067 45.53566812 41.82795525 47.76356009 38.11328125 49.81640625 C36.77052956 50.80372367 35.43595852 51.80235368 34.11328125 52.81640625 C33.12328125 53.47640625 32.13328125 54.13640625 31.11328125 54.81640625 C34.08328125 58.11640625 37.05328125 61.41640625 40.11328125 64.81640625 C42.96421005 61.26361985 42.96421005 61.26361985 44.11328125 58.81640625 C45.43328125 62.77640625 46.75328125 66.73640625 48.11328125 70.81640625 C49.76328125 71.14640625 51.41328125 71.47640625 53.11328125 71.81640625 C53.40203125 70.95015625 53.69078125 70.08390625 53.98828125 69.19140625 C54.35953125 68.07765625 54.73078125 66.96390625 55.11328125 65.81640625 C55.44328125 64.80578125 55.77328125 63.79515625 56.11328125 62.75390625 C57.11328125 59.81640625 57.11328125 59.81640625 58.30078125 57.50390625 C59.87082371 52.31068889 58.56750243 47.17717683 56.88305664 42.13085938 C55.71939062 37.46199456 57.07012573 34.31993509 59.3125 30.2109375 C59.66335159 29.52384201 60.01420319 28.83674652 60.37568665 28.12882996 C61.49524921 25.94985372 62.64722585 23.7900432 63.80078125 21.62890625 C64.55750627 20.16713577 65.31208556 18.70425238 66.06445312 17.24023438 C71.22023003 7.26534523 71.22023003 7.26534523 73.85473633 2.9909668 C75.28025248 0.94665693 75.28025248 0.94665693 75.11328125 -1.18359375 C69.83328125 -1.18359375 64.55328125 -1.18359375 59.11328125 -1.18359375 Z M89.4375 6.609375 C84.82550245 14.29603759 84.72977186 21.04121667 84.92578125 29.81640625 C84.93931641 30.97269531 84.95285156 32.12898438 84.96679688 33.3203125 C85.00191081 36.15283629 85.05109125 38.98436932 85.11328125 41.81640625 C85.68175781 41.56246094 86.25023437 41.30851562 86.8359375 41.046875 C91.57967021 38.9323898 96.33431857 36.85000739 101.11328125 34.81640625 C101.1390625 33.635625 101.16484375 32.45484375 101.19140625 31.23828125 C101.24769522 29.68095302 101.30504239 28.12366278 101.36328125 26.56640625 C101.38455078 25.40044922 101.38455078 25.40044922 101.40625 24.2109375 C101.56569674 20.47988371 101.69955283 18.39778932 103.90625 15.296875 C107.55263058 12.85089582 109.78531179 13.33552075 114.11328125 13.81640625 C116.28804526 15.35978716 116.93160762 16.45305898 118.11328125 18.81640625 C118.34500952 21.36255634 118.53222654 23.8903685 118.67578125 26.44140625 C118.71896484 27.1478125 118.76214844 27.85421875 118.80664062 28.58203125 C118.91272876 30.32659162 119.01351014 32.07147322 119.11328125 33.81640625 C123.33433124 31.0944994 123.33433124 31.0944994 127.11328125 27.81640625 C129.43603302 27.41593181 131.77067482 27.07669585 134.11328125 26.81640625 C134.65747599 18.38138771 133.14886757 11.69521099 127.86328125 4.94140625 C116.47128435 -3.86150044 99.37234344 -5.09039765 89.4375 6.609375 Z M149.11328125 -1.18359375 C149.11328125 5.04515625 149.11328125 11.27390625 149.11328125 17.69140625 C149.11328125 47.39973958 149.11328125 77.10807292 149.11328125 106.81640625 C164.29328125 106.81640625 179.47328125 106.81640625 195.11328125 106.81640625 C195.11328125 101.86640625 195.11328125 96.91640625 195.11328125 91.81640625 C185.21328125 91.81640625 175.31328125 91.81640625 165.11328125 91.81640625 C165.11328125 86.86640625 165.11328125 81.91640625 165.11328125 76.81640625 C163.46328125 75.82640625 161.81328125 74.83640625 160.11328125 73.81640625 C158.16182644 69.27241122 158.94550366 64.568498 160.546875 60.03515625 C161.19482803 58.45388905 161.86311609 56.88081212 162.55078125 55.31640625 C163.21683778 53.7229453 163.88223992 52.12921061 164.546875 50.53515625 C164.84650146 49.84357422 165.14612793 49.15199219 165.45483398 48.43945312 C166.17593597 46.95388535 166.17593597 46.95388535 166.11328125 45.81640625 C160.17328125 46.31140625 160.17328125 46.31140625 154.11328125 46.81640625 C153.78328125 43.51640625 153.45328125 40.21640625 153.11328125 36.81640625 C159.05328125 36.32140625 159.05328125 36.32140625 165.11328125 35.81640625 C165.11328125 28.55640625 165.11328125 21.29640625 165.11328125 13.81640625 C175.01328125 13.81640625 184.91328125 13.81640625 195.11328125 13.81640625 C195.11328125 8.86640625 195.11328125 3.91640625 195.11328125 -1.18359375 C179.93328125 -1.18359375 164.75328125 -1.18359375 149.11328125 -1.18359375 Z M-19.88671875 15.81640625 C-22.65524593 18.945768 -23.25211634 20.86694438 -23.1796875 25.01953125 C-23.17001953 25.99921875 -23.16035156 26.97890625 -23.15039062 27.98828125 C-23.12525391 29.0040625 -23.10011719 30.01984375 -23.07421875 31.06640625 C-23.06068359 32.09765625 -23.04714844 33.12890625 -23.03320312 34.19140625 C-22.99789482 36.73360417 -22.94857911 39.27473848 -22.88671875 41.81640625 C-20.36189884 39.32908366 -17.96195913 36.91156319 -15.76171875 34.12890625 C-13.88671875 31.81640625 -13.88671875 31.81640625 -10.88671875 29.81640625 C-10.42400551 25.00418851 -11.1385426 21.29610763 -12.88671875 16.81640625 C-15.19671875 16.48640625 -17.50671875 16.15640625 -19.88671875 15.81640625 Z M107.11328125 15.81640625 C104.77037233 18.30075062 104.13345191 19.59372218 103.8203125 23.05078125 C103.85511719 24.2109375 103.88992188 25.37109375 103.92578125 26.56640625 C103.95285156 27.736875 103.97992188 28.90734375 104.0078125 30.11328125 C104.04261719 31.0053125 104.07742188 31.89734375 104.11328125 32.81640625 C105.10328125 33.14640625 106.09328125 33.47640625 107.11328125 33.81640625 C107.84375 35.8828125 107.84375 35.8828125 108.30078125 38.37890625 C108.45933594 39.20519531 108.61789062 40.03148438 108.78125 40.8828125 C108.89082031 41.52089844 109.00039063 42.15898438 109.11328125 42.81640625 C108.15421875 43.03296875 108.15421875 43.03296875 107.17578125 43.25390625 C105.13782979 43.62647806 105.13782979 43.62647806 104.11328125 44.81640625 C104.0253715 47.10792042 104.00634087 49.40213149 104.015625 51.6953125 C104.01703995 52.38197495 104.0184549 53.06863739 104.01991272 53.77610779 C104.02552646 55.97708426 104.03808118 58.17796034 104.05078125 60.37890625 C104.05579449 61.86783708 104.0603577 63.35676949 104.06445312 64.84570312 C104.07550032 68.502637 104.09277412 72.15951183 104.11328125 75.81640625 C104.77328125 76.14640625 105.43328125 76.47640625 106.11328125 76.81640625 C105.12328125 77.31140625 105.12328125 77.31140625 104.11328125 77.81640625 C104.03206201 79.41973416 103.97398991 81.02424651 103.92578125 82.62890625 C103.87357422 83.96888672 103.87357422 83.96888672 103.8203125 85.3359375 C103.91752189 87.84672483 103.91752189 87.84672483 105.40234375 89.6484375 C107.25891436 91.16347844 107.25891436 91.16347844 110.67578125 90.69140625 C114.36770519 90.16006692 114.36770519 90.16006692 116.11328125 86.81640625 C116.66767059 83.42587773 116.65035976 80.20904082 116.11328125 76.81640625 C113.80721646 73.59906838 113.80721646 73.59906838 111.11328125 70.81640625 C108.96990957 65.05609486 108.69920768 59.48258978 108.48828125 53.37890625 C108.44960938 52.45658203 108.4109375 51.53425781 108.37109375 50.58398438 C108.27759908 48.32842557 108.19438764 46.07244449 108.11328125 43.81640625 C111.08328125 43.81640625 114.05328125 43.81640625 117.11328125 43.81640625 C118.10328125 41.50640625 119.09328125 39.19640625 120.11328125 36.81640625 C118.79328125 36.81640625 117.47328125 36.81640625 116.11328125 36.81640625 C116.14808594 35.15351562 116.14808594 35.15351562 116.18359375 33.45703125 C116.20235702 31.99349633 116.22055662 30.52995411 116.23828125 29.06640625 C116.25503906 28.33679688 116.27179688 27.6071875 116.2890625 26.85546875 C116.42651775 21.47379539 116.42651775 21.47379539 114.11328125 16.81640625 C110.55121464 15.9977044 110.55121464 15.9977044 107.11328125 15.81640625 Z M80.11328125 37.81640625 C78.79328125 40.45640625 77.47328125 43.09640625 76.11328125 45.81640625 C77.76328125 45.15640625 79.41328125 44.49640625 81.11328125 43.81640625 C81.11328125 41.83640625 81.11328125 39.85640625 81.11328125 37.81640625 C80.78328125 37.81640625 80.45328125 37.81640625 80.11328125 37.81640625 Z M-8.88671875 40.81640625 C-13.83671875 47.25140625 -13.83671875 47.25140625 -18.88671875 53.81640625 C-18.55671875 54.47640625 -18.22671875 55.13640625 -17.88671875 55.81640625 C-15.24671875 54.82640625 -12.60671875 53.83640625 -9.88671875 52.81640625 C-9.88671875 51.49640625 -9.88671875 50.17640625 -9.88671875 48.81640625 C-8.89671875 48.48640625 -7.90671875 48.15640625 -6.88671875 47.81640625 C-6.55671875 45.83640625 -6.22671875 43.85640625 -5.88671875 41.81640625 C-6.87671875 41.48640625 -7.86671875 41.15640625 -8.88671875 40.81640625 Z M140.55078125 41.81640625 C139.72449219 42.00203125 138.89820313 42.18765625 138.046875 42.37890625 C137.08974609 42.59546875 137.08974609 42.59546875 136.11328125 42.81640625 C136.38945658 44.75715486 136.38945658 44.75715486 137.11328125 46.81640625 C138.59828125 47.80640625 138.59828125 47.80640625 140.11328125 48.81640625 C141.30078125 51.94140625 141.30078125 51.94140625 142.11328125 54.81640625 C140.46328125 54.81640625 138.81328125 54.81640625 137.11328125 54.81640625 C137.11328125 58.44640625 137.11328125 62.07640625 137.11328125 65.81640625 C141.64468778 66.75021586 141.64468778 66.75021586 146.11328125 65.81640625 C146.11328125 57.56640625 146.11328125 49.31640625 146.11328125 40.81640625 C144.22730064 40.81640625 142.38195763 41.40374678 140.55078125 41.81640625 Z M-79.88671875 44.81640625 C-84.54176942 49.91512011 -87.98943236 55.06380745 -91.26171875 61.12890625 C-91.71160156 61.93908203 -92.16148438 62.74925781 -92.625 63.58398438 C-95.00747373 67.48458652 -95.00747373 67.48458652 -95.88671875 71.81640625 C-96.54671875 71.81640625 -97.20671875 71.81640625 -97.88671875 71.81640625 C-97.88671875 73.13640625 -97.88671875 74.45640625 -97.88671875 75.81640625 C-98.54671875 75.81640625 -99.20671875 75.81640625 -99.88671875 75.81640625 C-99.88671875 86.04640625 -99.88671875 96.27640625 -99.88671875 106.81640625 C-85.03671875 106.81640625 -70.18671875 106.81640625 -54.88671875 106.81640625 C-54.88671875 101.86640625 -54.88671875 96.91640625 -54.88671875 91.81640625 C-64.45671875 91.81640625 -74.02671875 91.81640625 -83.88671875 91.81640625 C-83.83528274 87.17430609 -83.77181974 82.53533889 -83.67919922 77.89428711 C-83.65123079 76.32050016 -83.62989813 74.74657904 -83.61572266 73.17260742 C-83.53241844 64.43954842 -83.2797374 56.91271582 -79.63769531 48.79614258 C-79.38987305 48.14282959 -79.14205078 47.4895166 -78.88671875 46.81640625 C-79.21671875 46.15640625 -79.54671875 45.49640625 -79.88671875 44.81640625 Z M179.11328125 44.81640625 C176.72283974 48.2472221 173.11328125 53.470077 173.11328125 57.81640625 C178.39328125 57.81640625 183.67328125 57.81640625 189.11328125 57.81640625 C189.11328125 52.86640625 189.11328125 47.91640625 189.11328125 42.81640625 C185.4337004 42.81640625 182.41909447 43.08712772 179.11328125 44.81640625 Z M111.11328125 46.81640625 C111.11328125 49.45640625 111.11328125 52.09640625 111.11328125 54.81640625 C112.89034334 52.15081312 113.98876398 49.78834475 115.11328125 46.81640625 C113.79328125 46.81640625 112.47328125 46.81640625 111.11328125 46.81640625 Z M127.11328125 46.81640625 C126.78328125 47.47640625 126.45328125 48.13640625 126.11328125 48.81640625 C128.09328125 48.48640625 130.07328125 48.15640625 132.11328125 47.81640625 C132.11328125 47.48640625 132.11328125 47.15640625 132.11328125 46.81640625 C130.46328125 46.81640625 128.81328125 46.81640625 127.11328125 46.81640625 Z M98.11328125 47.81640625 C98.11328125 48.47640625 98.11328125 49.13640625 98.11328125 49.81640625 C97.42621094 49.94917969 96.73914063 50.08195312 96.03125 50.21875 C94.67966797 50.48365234 94.67966797 50.48365234 93.30078125 50.75390625 C91.96080078 51.01494141 91.96080078 51.01494141 90.59375 51.28125 C87.99930954 51.79381778 87.99930954 51.79381778 85.11328125 52.81640625 C85.11328125 56.11640625 85.11328125 59.41640625 85.11328125 62.81640625 C86.10328125 63.14640625 87.09328125 63.47640625 88.11328125 63.81640625 C88.44328125 64.80640625 88.77328125 65.79640625 89.11328125 66.81640625 C90.10328125 66.81640625 91.09328125 66.81640625 92.11328125 66.81640625 C92.44328125 67.80640625 92.77328125 68.79640625 93.11328125 69.81640625 C93.77328125 69.48640625 94.43328125 69.15640625 95.11328125 68.81640625 C96.44661458 68.81640625 97.77994792 68.81640625 99.11328125 68.81640625 C99.44328125 69.80640625 99.77328125 70.79640625 100.11328125 71.81640625 C100.44328125 71.81640625 100.77328125 71.81640625 101.11328125 71.81640625 C101.11328125 63.56640625 101.11328125 55.31640625 101.11328125 46.81640625 C99.88967445 46.74187065 99.88967445 46.74187065 98.11328125 47.81640625 Z M-55.88671875 47.81640625 C-56.87671875 48.31140625 -56.87671875 48.31140625 -57.88671875 48.81640625 C-57.88671875 50.46640625 -57.88671875 52.11640625 -57.88671875 53.81640625 C-56.89671875 52.49640625 -55.90671875 51.17640625 -54.88671875 49.81640625 C-55.21671875 49.15640625 -55.54671875 48.49640625 -55.88671875 47.81640625 Z M-64.44921875 55.31640625 C-65.65578125 56.55390625 -65.65578125 56.55390625 -66.88671875 57.81640625 C-64.90671875 57.81640625 -62.92671875 57.81640625 -60.88671875 57.81640625 C-60.88671875 56.16640625 -60.88671875 54.51640625 -60.88671875 52.81640625 C-62.36408857 52.70001894 -62.36408857 52.70001894 -64.44921875 55.31640625 Z M80.11328125 54.81640625 C80.11328125 57.81640625 80.11328125 57.81640625 80.11328125 57.81640625 Z M21.11328125 56.81640625 C21.11328125 73.31640625 21.11328125 89.81640625 21.11328125 106.81640625 C26.39328125 106.81640625 31.67328125 106.81640625 37.11328125 106.81640625 C37.32185601 102.31273641 37.50014993 97.82621829 37.60766602 93.3215332 C37.65251445 91.79556128 37.71362463 90.26996682 37.79223633 88.74536133 C38.20505558 80.52405244 38.37890188 74.33522971 33.015625 67.6171875 C29.29879003 63.66607639 25.26122226 60.37178426 21.11328125 56.81640625 Z M126.61328125 57.06640625 C125.14375 57.41445312 125.14375 57.41445312 123.64453125 57.76953125 C121.0236157 58.5912442 121.0236157 58.5912442 119.77734375 60.69140625 C118.82038618 63.75367046 118.99088432 66.63408606 119.11328125 69.81640625 C120.67538286 69.87100398 122.23805214 69.90946726 123.80078125 69.94140625 C125.10595703 69.97621094 125.10595703 69.97621094 126.4375 70.01171875 C129.5932589 69.91713447 129.5932589 69.91713447 134.11328125 67.81640625 C134.11328125 63.85640625 134.11328125 59.89640625 134.11328125 55.81640625 C131.47344173 55.81640625 129.17615792 56.43243149 126.61328125 57.06640625 Z M-17.94921875 65.31640625 C-18.86832031 65.78046875 -19.78742188 66.24453125 -20.734375 66.72265625 C-21.44464844 67.08359375 -22.15492188 67.44453125 -22.88671875 67.81640625 C-22.91575452 70.92055327 -22.93352945 74.02466534 -22.94921875 77.12890625 C-22.95759766 78.00998047 -22.96597656 78.89105469 -22.97460938 79.79882812 C-22.97783203 80.64638672 -22.98105469 81.49394531 -22.984375 82.3671875 C-22.98961182 83.14747314 -22.99484863 83.92775879 -23.00024414 84.73168945 C-22.96809738 87.01256175 -22.96809738 87.01256175 -21.88671875 89.81640625 C-17.35824154 90.93952194 -17.35824154 90.93952194 -13.01171875 89.87890625 C-11.24357212 86.63730409 -11.18716844 83.48189245 -10.88671875 79.81640625 C-11.54671875 79.81640625 -12.20671875 79.81640625 -12.88671875 79.81640625 C-12.99141213 74.0582705 -12.62688576 68.52626603 -11.88671875 62.81640625 C-13.98967658 62.81640625 -16.12881297 64.39468181 -17.94921875 65.31640625 Z M-3.88671875 67.81640625 C-4.82996133 72.12837234 -5.3671359 76.43706506 -5.88671875 80.81640625 C-6.54671875 80.81640625 -7.20671875 80.81640625 -7.88671875 80.81640625 C-7.99628906 81.43128906 -8.10585937 82.04617187 -8.21875 82.6796875 C-8.45658203 83.89205078 -8.45658203 83.89205078 -8.69921875 85.12890625 C-8.85003906 85.92941406 -9.00085938 86.72992188 -9.15625 87.5546875 C-9.98682393 90.12635758 -10.72019214 91.21682118 -12.88671875 92.81640625 C-19.70717804 93.57423506 -19.70717804 93.57423506 -23.09375 91.3984375 C-25.80744788 87.49047607 -25.56107356 83.72202412 -25.63671875 79.06640625 C-25.66636719 78.17824219 -25.69601563 77.29007813 -25.7265625 76.375 C-25.79708793 74.18871176 -25.84986512 72.00347857 -25.88671875 69.81640625 C-28.97431434 70.45708601 -28.97431434 70.45708601 -29.8359375 72.6640625 C-30.07957031 73.39496094 -30.32320312 74.12585938 -30.57421875 74.87890625 C-30.82558594 75.61238281 -31.07695312 76.34585938 -31.3359375 77.1015625 C-31.51769531 77.66746094 -31.69945312 78.23335937 -31.88671875 78.81640625 C-33.86671875 78.81640625 -35.84671875 78.81640625 -37.88671875 78.81640625 C-38.17546875 78.19765625 -38.46421875 77.57890625 -38.76171875 76.94140625 C-39.82391917 74.6831486 -39.82391917 74.6831486 -41.88671875 72.81640625 C-42.62599864 88.10648819 -42.62599864 88.10648819 -36.19921875 101.62890625 C-30.74298586 107.42946451 -25.036972 108.01079989 -17.38671875 108.25390625 C-10.14308474 108.0812675 -5.47188181 107.14375983 -0.1484375 102.203125 C6.93349923 94.58032437 7.18667807 85.43177191 7.34375 75.46484375 C7.09326335 72.58637001 6.30816642 70.43287418 5.11328125 67.81640625 C2.14328125 67.81640625 -0.82671875 67.81640625 -3.88671875 67.81640625 Z M63.11328125 69.81640625 C63.11328125 70.47640625 63.11328125 71.13640625 63.11328125 71.81640625 C63.77328125 71.81640625 64.43328125 71.81640625 65.11328125 71.81640625 C65.11328125 71.15640625 65.11328125 70.49640625 65.11328125 69.81640625 C64.45328125 69.81640625 63.79328125 69.81640625 63.11328125 69.81640625 Z M85.11328125 71.81640625 C85.03153329 74.65033551 84.9724314 77.48185444 84.92578125 80.31640625 C84.90064453 81.10789062 84.87550781 81.899375 84.84960938 82.71484375 C84.74985973 90.82781463 86.7921365 97.36728878 92.41015625 103.33984375 C98.44054001 108.56802049 105.78870381 108.393865 113.40625 108.234375 C119.98032075 107.49314679 124.73117147 105.01527682 129.55078125 100.56640625 C134.04158513 92.66259142 134.42446538 85.84074596 134.11328125 76.81640625 C129.16328125 77.14640625 124.21328125 77.47640625 119.11328125 77.81640625 C118.84515625 79.92015625 118.57703125 82.02390625 118.30078125 84.19140625 C117.84375 87.77734375 117.84375 87.77734375 117.11328125 90.81640625 C113.40828141 93.28640614 110.40918299 93.46598817 106.11328125 92.81640625 C103.67578125 91.50390625 103.67578125 91.50390625 102.11328125 88.81640625 C101.49682142 85.15452951 101.24116618 81.52506916 101.11328125 77.81640625 C100.08203125 77.56890625 99.05078125 77.32140625 97.98828125 77.06640625 C94.1786087 76.00216574 91.37648112 74.04131526 88.11328125 71.81640625 C87.12328125 71.81640625 86.13328125 71.81640625 85.11328125 71.81640625 Z M63.05078125 74.69140625 C60.88869663 76.58344499 60.88869663 76.58344499 61.11328125 78.81640625 C60.37078125 78.94015625 59.62828125 79.06390625 58.86328125 79.19140625 C56.29879583 79.77424385 54.42161613 80.60305074 52.11328125 81.81640625 C54.15489452 90.26267435 56.18719397 98.62336186 59.11328125 106.81640625 C64.72328125 106.81640625 70.33328125 106.81640625 76.11328125 106.81640625 C72.81328125 95.59640625 69.51328125 84.37640625 66.11328125 72.81640625 C64.77203995 72.70429412 64.77203995 72.70429412 63.05078125 74.69140625 Z M99.11328125 72.81640625 C99.77328125 73.47640625 100.43328125 74.13640625 101.11328125 74.81640625 C101.11328125 74.15640625 101.11328125 73.49640625 101.11328125 72.81640625 C100.45328125 72.81640625 99.79328125 72.81640625 99.11328125 72.81640625 Z " fill="#00405F" transform="translate(182.88671875,39.18359375)"/>
<path d="M0 0 C17.16 0 34.32 0 52 0 C52 6.6 52 13.2 52 20 C42.43 20 32.86 20 23 20 C23 27.92 23 35.84 23 44 C31.14433276 43.20081915 31.14433276 43.20081915 36 38 C41.07787756 39.08811662 43.45395901 41.14496271 46.703125 44.953125 C48.3238649 47.51116026 49.134473 50.10946642 50 53 C50.48210937 52.24074219 50.96421875 51.48148438 51.4609375 50.69921875 C52.09257812 49.70535156 52.72421875 48.71148437 53.375 47.6875 C54.00148438 46.70136719 54.62796875 45.71523437 55.2734375 44.69921875 C56.49651613 42.78712071 57.7409356 40.8885966 59 39 C59.24144163 36.03115535 59.37307097 33.148132 59.4140625 30.17578125 C59.43342865 29.31438034 59.4527948 28.45297943 59.4727478 27.56547546 C59.5325203 24.81458432 59.57891948 22.06365127 59.625 19.3125 C59.66318194 17.44724739 59.7022338 15.58201237 59.7421875 13.71679688 C59.83985744 9.14462286 59.9194436 4.57263587 60 0 C67.26 0 74.52 0 82 0 C82.33 10.56 82.66 21.12 83 32 C88.62833886 21.42784999 94.11196398 10.93376477 99 0 C106.26 0 113.52 0 121 0 C115.78764158 11.06623787 110.53440096 22.09135759 105 33 C105.77730469 33.11859375 106.55460937 33.2371875 107.35546875 33.359375 C111.02620747 34.24859383 112.05529151 35.83084542 114 39 C114 40.65 114 42.3 114 44 C110.7 44 107.4 44 104 44 C102.3557649 48.93270529 103.81384408 51.54024193 106 56 C106.99 55.01 106.99 55.01 108 54 C111 54.125 111 54.125 114 55 C115.65177861 57.10226369 115.95287206 58.77614229 116.5 61.375 C115.89844455 64.53316613 115.2643516 64.6836654 112.8125 66.5625 C111.13828351 67.98942462 111.13828351 67.98942462 110 70 C110.16698312 72.56514999 110.16698312 72.56514999 111.0625 75.3359375 C111.511698 76.93465698 111.511698 76.93465698 111.9699707 78.56567383 C112.30988037 79.69900146 112.64979004 80.8323291 113 82 C113.33281982 83.14170654 113.66563965 84.28341309 114.00854492 85.4597168 C115.4112849 90.22347075 116.85603092 94.97405076 118.30273438 99.72460938 C118.65013672 100.87896484 118.99753906 102.03332031 119.35546875 103.22265625 C119.67153076 104.26172119 119.98759277 105.30078613 120.31323242 106.37133789 C121 109 121 109 121 112 C113.41 112 105.82 112 98 112 C96.845 108.57625 95.69 105.1525 94.5 101.625 C94.13455078 100.54686035 93.76910156 99.4687207 93.39257812 98.35791016 C92.9662207 97.08633057 92.9662207 97.08633057 92.53125 95.7890625 C92.23798828 94.91975098 91.94472656 94.05043945 91.64257812 93.15478516 C91 91 91 91 91 89 C90.34 88.67 89.68 88.34 89 88 C88.62109375 86.0390625 88.62109375 86.0390625 88.4375 83.625 C88.21246912 80.80522535 87.90445432 78.71336297 87 76 C85.02 75.505 85.02 75.505 83 75 C82.67 87.21 82.34 99.42 82 112 C74.74 112 67.48 112 60 112 C60 96.49 60 80.98 60 65 C56.85190262 66.57404869 56.61322733 69.27113689 55.4375 72.5 C53.08919383 78.91080617 53.08919383 78.91080617 52 80 C49.07462235 80.28310106 46.84502508 80.47417085 44 80 C41.351862 77.60012493 41.0439539 75.72779474 40.83203125 72.21875 C40.8143273 69.47109698 40.87023458 66.74429825 41 64 C37.30936228 63.48019187 34.47173884 63.57699077 31 65 C24.19063492 73.4873872 23.84053106 81.07309626 23 92 C32.57 92 42.14 92 52 92 C52 98.6 52 105.2 52 112 C34.84 112 17.68 112 0 112 C-0.33 102.1 -0.66 92.2 -1 82 C-2.32 81.67 -3.64 81.34 -5 81 C-5 80.34 -5 79.68 -5 79 C-5.9590625 78.5359375 -5.9590625 78.5359375 -6.9375 78.0625 C-9 77 -9 77 -10 76 C-11.34999596 66.80074183 -8.10451477 58.53208989 -2.9453125 51.00048828 C-0.20774489 46.20661292 -0.39685069 41.43883498 -0.390625 36.03515625 C-0.37499512 35.11827026 -0.35936523 34.20138428 -0.34326172 33.25671387 C-0.29098986 29.85890243 -0.27245189 26.46063932 -0.25 23.0625 C-0.1675 15.451875 -0.085 7.84125 0 0 Z M4 2 C4 13.88 4 25.76 4 38 C6.83328987 35.16671013 7.7191375 33.64553172 9 30 C10.98 30 12.96 30 15 30 C16.58261517 35.77654536 17.47514461 41.29685543 14.5078125 46.734375 C13.28864828 48.44424017 12.02990134 50.12683246 10.7265625 51.7734375 C9.13219173 53.8295265 8.08293248 55.64924413 7 58 C6.23683472 59.22009766 6.23683472 59.22009766 5.45825195 60.46484375 C3.47156359 65.28105797 3.62516732 69.49236735 3.70703125 74.6484375 C3.71127609 75.66096588 3.71552094 76.67349426 3.71989441 77.71670532 C3.73662698 80.93641248 3.77426974 84.15548344 3.8125 87.375 C3.82755382 89.56379302 3.841241 91.75259589 3.85351562 93.94140625 C3.88395519 99.29471047 3.94268813 104.64664685 4 110 C18.85 110 33.7 110 49 110 C49 105.05 49 100.1 49 95 C39.43 95 29.86 95 20 95 C20.1875 87.3125 20.1875 87.3125 20.27026367 84.91918945 C20.3247927 80.28187656 19.56195068 77.78807318 17 74 C15.21633784 68.20982033 17.28867125 64.17484788 20 59 C22.00157431 55.99763853 24.09964162 53.11475381 26.29296875 50.25 C28.01474477 48.12411537 28.01474477 48.12411537 29 46 C26.03 46 23.06 46 20 46 C20 36.43 20 26.86 20 17 C29.57 17 39.14 17 49 17 C49 12.05 49 7.1 49 2 C34.15 2 19.3 2 4 2 Z M63 2 C63 12.89 63 23.78 63 35 C67.62 35 72.24 35 77 35 C77.66 35.33 78.32 35.66 79 36 C79 24.78 79 13.56 79 2 C73.72 2 68.44 2 63 2 Z M91 23 C89.133029 26.78549368 87.28362934 30.5793041 85.4375 34.375 C84.90447266 35.45523438 84.37144531 36.53546875 83.82226562 37.6484375 C83.32275391 38.6796875 82.82324219 39.7109375 82.30859375 40.7734375 C81.84251709 41.72653809 81.37644043 42.67963867 80.89624023 43.66162109 C80.60048096 44.43328613 80.30472168 45.20495117 80 46 C80.33 46.66 80.66 47.32 81 48 C81.70125 47.0925 82.4025 46.185 83.125 45.25 C85.00708933 42.96345022 86.8046561 41.32261471 89.3125 39.75 C90.199375 39.1725 91.08625 38.595 92 38 C92 37.34 92 36.68 92 36 C93.98 35.34 95.96 34.68 98 34 C96.18690997 30.22272911 94.0926741 26.62730178 92 23 C91.67 23 91.34 23 91 23 Z M72.0625 44.375 C69.42627001 46.82098659 66.99556649 49.00295568 64 51 C62.96555372 54.10333883 62.87916576 56.22876249 62.88647461 59.48120117 C62.88655014 60.60213669 62.88662567 61.7230722 62.88670349 62.87797546 C62.89186478 64.08742325 62.89702606 65.29687103 62.90234375 66.54296875 C62.9037587 67.78170242 62.90517365 69.0204361 62.90663147 70.29670715 C62.91128398 73.58631537 62.9202661 76.8758746 62.93133545 80.16546631 C62.94157371 83.52371623 62.94613426 86.88197333 62.95117188 90.24023438 C62.96220855 96.8268446 62.9794771 103.41341278 63 110 C68.28 110 73.56 110 79 110 C79.24229635 104.68052851 79.45717345 99.36091038 79.64697266 94.03930664 C79.7153306 92.23008891 79.79110643 90.42113534 79.87451172 88.61254883 C79.99327898 86.00897008 80.08512039 83.40559929 80.171875 80.80078125 C80.21439392 79.99538406 80.25691284 79.18998688 80.30072021 78.36018372 C80.4397157 73.15945877 79.68671301 70.9199641 76 67 C75.72265625 64.0625 75.72265625 64.0625 76.0625 61 C76.20365234 59.4840625 76.20365234 59.4840625 76.34765625 57.9375 C77 55 77 55 78.578125 52.45703125 C80.29908856 49.48316839 80.17932881 48.04087827 79.6875 44.6875 C79.56761719 43.80449219 79.44773437 42.92148438 79.32421875 42.01171875 C79.21722656 41.34785156 79.11023438 40.68398437 79 40 C75.77987205 40 74.35943516 42.23659047 72.0625 44.375 Z M89 55 C86.69985241 57.92112751 86.69985241 57.92112751 86 61 C86.68642084 64.31470658 86.68642084 64.31470658 88 67 C89.94056433 66.798422 91.87760148 66.56268261 93.8125 66.3125 C94.89144531 66.18488281 95.97039062 66.05726562 97.08203125 65.92578125 C100.12024319 65.22584512 100.12024319 65.22584512 102 62.84375 C103.35652203 58.98614047 102.53638494 57.0029174 101.1875 53.1875 C100.59001953 51.44533203 100.59001953 51.44533203 99.98046875 49.66796875 C99.65691406 48.78753906 99.33335937 47.90710938 99 47 C95.67105594 47 91.25274343 52.76747868 89 55 Z M38 51 C34.98295115 54.1999003 33.50109958 56.61537866 33 61 C35.31 61 37.62 61 40 61 C40 57.7 40 54.4 40 51 C39.34 51 38.68 51 38 51 Z M91 74 C91.33 76.64 91.66 79.28 92 82 C93.77706209 79.33440687 94.87548273 76.9719385 96 74 C94.35 74 92.7 74 91 74 Z M106 77 C105.60167969 78.13179688 105.20335937 79.26359375 104.79296875 80.4296875 C104.25833749 81.91164783 103.72315234 83.39340843 103.1875 84.875 C102.92646484 85.62136719 102.66542969 86.36773437 102.39648438 87.13671875 C102.13544922 87.85214844 101.87441406 88.56757812 101.60546875 89.3046875 C101.25198364 90.2944458 101.25198364 90.2944458 100.89135742 91.30419922 C100 93 100 93 97 95 C97.28540514 96.56365584 97.57863498 98.12588434 97.875 99.6875 C98.03742188 100.55761719 98.19984375 101.42773438 98.3671875 102.32421875 C99.03636846 105.44794526 99.03636846 105.44794526 101 110 C106.28 110 111.56 110 117 110 C115.62044648 102.43335797 113.67113194 95.21142157 111.375 87.875 C110.88773438 86.2971875 110.88773438 86.2971875 110.390625 84.6875 C109.59814686 82.12360014 108.80120992 79.56118184 108 77 C107.34 77 106.68 77 106 77 Z " fill="#00405F" transform="translate(388,36)"/>
<path d="M0 0 C15.84 0 31.68 0 48 0 C48 17.55382436 48 17.55382436 44.55859375 23.9296875 C43.26603902 26.47592313 42.25588591 28.89577555 41.28515625 31.5703125 C40.98939697 32.38193848 40.6936377 33.19356445 40.38891602 34.02978516 C39.80663665 35.6478853 39.23507945 37.26989348 38.67553711 38.89599609 C37.41826972 42.31242741 36.53962621 44.52652761 33.76953125 46.95703125 C30.28614606 48.26882793 26.86497076 48.80391693 23.1875 49.1875 C22.49462891 49.26935547 21.80175781 49.35121094 21.08789062 49.43554688 C19.39313016 49.63424293 17.69669806 49.81859203 16 50 C16.60122362 45.32104727 17.89715861 41.4130753 19.72265625 37.0703125 C19.98759384 36.43511688 20.25253143 35.79992126 20.52549744 35.14547729 C21.36520443 33.13609166 22.21368234 31.13055157 23.0625 29.125 C23.63665344 27.75545374 24.21022706 26.38566425 24.78320312 25.015625 C26.18105431 21.67372897 27.59072915 18.33718737 29 15 C19.43 15 9.86 15 0 15 C0 10.05 0 5.1 0 0 Z " fill="#E9D213" transform="translate(516,38)"/>
<path d="M0 0 C18.81 0 37.62 0 57 0 C57 6.6 57 13.2 57 20 C51.39 20 45.78 20 40 20 C40 50.36 40 80.72 40 112 C32.41 112 24.82 112 17 112 C17 81.64 17 51.28 17 20 C11.39 20 5.78 20 0 20 C0 13.4 0 6.8 0 0 Z M3 2 C3 6.95 3 11.9 3 17 C8.94 17 14.88 17 21 17 C21 47.69 21 78.38 21 110 C25.95 110 30.9 110 36 110 C36 79.31 36 48.62 36 17 C41.94 17 47.88 17 54 17 C54 12.05 54 7.1 54 2 C37.17 2 20.34 2 3 2 Z " fill="#004064" transform="translate(16,36)"/>
<path d="M0 0 C17.49 0 34.98 0 53 0 C53 20.63650602 53 20.63650602 47.875 31.625 C46.84879417 33.97462057 45.82404299 36.32487703 44.80078125 38.67578125 C44.30916504 39.77744629 43.81754883 40.87911133 43.31103516 42.01416016 C41.74762329 45.57477974 40.38268432 49.15507092 39.0625 52.8125 C34.34294758 65.65472423 29.1065812 78.30791468 24 91 C33.57 91.33 43.14 91.66 53 92 C53 98.6 53 105.2 53 112 C34.85 112 16.7 112 -2 112 C-2 91.31697785 -2 91.31697785 1.40234375 83.79296875 C1.75565765 82.94217239 2.10897156 82.09137604 2.47299194 81.21479797 C3.59814718 78.5252761 4.76636745 75.85727321 5.9375 73.1875 C6.72640452 71.32542494 7.51244057 69.46213208 8.2956543 67.59765625 C10.17072755 63.15254484 12.07911263 58.72291393 14.00305176 54.29876709 C15.350351 51.19215932 16.67247347 48.07545616 17.9921875 44.95703125 C19.38971162 41.66109925 20.80156213 38.37276561 22.23828125 35.09375 C24.24453072 30.43177784 26.11506805 25.71232988 28 21 C14.14 20.505 14.14 20.505 0 20 C0 13.4 0 6.8 0 0 Z M3 2 C3 6.95 3 11.9 3 17 C12.57 17 22.14 17 32 17 C31.11957031 19.14757812 30.23914063 21.29515625 29.33203125 23.5078125 C28.46076659 25.63918422 27.59056599 27.7709875 26.72045898 29.90283203 C26.12520972 31.35966418 25.52889317 32.81606081 24.93139648 34.27197266 C21.97129451 41.48675444 19.0654304 48.69167307 16.5 56.05859375 C14.74156712 61.08125427 12.78506252 65.96200514 10.66796875 70.83984375 C10.09157418 72.18414933 9.51540326 73.52855082 8.93945312 74.87304688 C8.06595115 76.91023862 7.18526846 78.94248452 6.27954102 80.96557617 C5.38328494 82.97603103 4.52356353 84.99930587 3.66796875 87.02734375 C3.15516357 88.20031006 2.6423584 89.37327637 2.11401367 90.58178711 C0.38877686 96.66471445 0.38877686 96.66471445 1 110 C17.17 110 33.34 110 50 110 C50 105.05 50 100.1 50 95 C39.77 95 29.54 95 19 95 C21.18461948 89.50379519 23.37089397 84.0083059 25.5612793 78.5144043 C26.30409575 76.64987542 27.04597871 74.78497433 27.78686523 72.91967773 C34.9154141 54.97573107 34.9154141 54.97573107 38.84887695 46.54711914 C41.17356236 41.40322882 43.18604771 36.12757319 45.25 30.875 C46.12785594 28.64230282 47.0079377 26.41047904 47.890625 24.1796875 C48.27250977 23.20757324 48.65439453 22.23545898 49.04785156 21.23388672 C50 19 50 19 51 18 C51 12.72 51 7.44 51 2 C35.16 2 19.32 2 3 2 Z " fill="#00405F" transform="translate(513,36)"/>
<path d="M0 0 C1.31097656 -0.01611328 2.62195313 -0.03222656 3.97265625 -0.04882812 C20.03296181 -0.05688244 32.27204601 4.97540032 43.96484375 16.09375 C51.22873664 23.55467435 54.18344069 31.15032786 54.5625 41.625 C54.21321128 53.50081643 50.53200406 62.87278387 42.125 71.3125 C39.125 73.625 39.125 73.625 36.125 75.3125 C34.77073842 76.20818984 33.41657707 77.10403125 32.0625 78 C28.81328011 80.14621273 27.25716717 80.48606657 23.125 81.3125 C24.115 78.0125 25.105 74.7125 26.125 71.3125 C27.115 72.3025 28.105 73.2925 29.125 74.3125 C29.60710937 73.9515625 30.08921875 73.590625 30.5859375 73.21875 C31.53339844 72.52265625 31.53339844 72.52265625 32.5 71.8125 C33.12648438 71.3484375 33.75296875 70.884375 34.3984375 70.40625 C36.125 69.3125 36.125 69.3125 38.125 69.3125 C38.125 68.6525 38.125 67.9925 38.125 67.3125 C40.625 64.8125 40.625 64.8125 43.125 62.3125 C48.99307626 54.76783053 49.99160859 46.61237427 49.125 37.3125 C48.36002639 33.88245703 47.2981322 30.62178338 46.125 27.3125 C45.6609375 25.70375 45.6609375 25.70375 45.1875 24.0625 C42.39129556 16.82526498 37.90658641 12.80780396 31.125 9.3125 C27.76439932 8.62980524 27.76439932 8.62980524 24.125 8.3125 C22.34819791 7.64057643 20.57807471 6.95089436 18.8125 6.25 C10.30647589 3.33609754 -0.33866306 2.26121618 -8.921875 5.44140625 C-11.28669879 6.74059183 -11.28669879 6.74059183 -13.24609375 8.21875 C-14.875 9.3125 -14.875 9.3125 -17.875 9.3125 C-17.875 8.6525 -17.875 7.9925 -17.875 7.3125 C-28.72590224 8.39759022 -35.74448129 14.93345271 -42.64550781 22.79150391 C-48.07357952 29.50653304 -48.53435397 37.7972748 -49.28515625 46.08984375 C-49.87921101 49.33550716 -50.26924836 50.3987908 -52.875 52.3125 C-55.94459095 44.36767636 -55.13346712 36.14889608 -52.3125 28.1875 C-48.16393229 18.90545282 -41.68958715 12.20949286 -32.875 7.3125 C-32.04613281 6.84972656 -31.21726562 6.38695312 -30.36328125 5.91015625 C-20.19654763 0.53875793 -11.38414036 -0.02782048 0 0 Z " fill="#FEF247" transform="translate(530.875,1.6875)"/>
<path d="M0 0 C5.28 0 10.56 0 16 0 C13.86075967 6.41772098 11.15295313 12.24891929 8.1875 18.3125 C7.66607422 19.42173828 7.14464844 20.53097656 6.60742188 21.67382812 C6.09115234 22.72634766 5.57488281 23.77886719 5.04296875 24.86328125 C4.57914795 25.82532471 4.11532715 26.78736816 3.63745117 27.77856445 C2 30 2 30 -0.69018555 30.82104492 C-1.45242432 30.8801001 -2.21466309 30.93915527 -3 31 C-8.85342833 24.09595632 -8.85342833 24.09595632 -9.34375 20.4296875 C-8.86578523 15.66090259 -6.83016262 12.25351636 -4.5 8.125 C-4.07074219 7.34125 -3.64148438 6.5575 -3.19921875 5.75 C-2.14399766 3.82715267 -1.07349924 1.91270301 0 0 Z " fill="#F9E344" transform="translate(489,38)"/>
<path d="M0 0 C17.49 0 34.98 0 53 0 C53 13.9251165 52.90732053 20.90692454 47.5 32.625 C46.97535156 33.8315625 46.45070313 35.038125 45.91015625 36.28125 C44.63534898 39.20171757 43.33277912 42.1056523 42 45 C41.01 44.505 41.01 44.505 40 44 C40.60961887 40.53471696 41.50164193 37.43465819 42.8125 34.171875 C43.16570313 33.29015625 43.51890625 32.4084375 43.8828125 31.5 C44.25148438 30.5925 44.62015625 29.685 45 28.75 C45.36867188 27.82703125 45.73734375 26.9040625 46.1171875 25.953125 C48.86414717 19.13585283 48.86414717 19.13585283 50 18 C50.33 12.72 50.66 7.44 51 2 C35.16 2 19.32 2 3 2 C3 6.95 3 11.9 3 17 C12.57 17 22.14 17 32 17 C28.625 28.25 28.625 28.25 26.73828125 32.7890625 C26.34189453 33.74941406 25.94550781 34.70976563 25.53710938 35.69921875 C25.13298828 36.66472656 24.72886719 37.63023438 24.3125 38.625 C23.68891602 40.13126953 23.68891602 40.13126953 23.05273438 41.66796875 C22.03945904 44.11380576 21.02183204 46.5577285 20 49 C19.34 48.67 18.68 48.34 18 48 C20.41833814 38.62606075 24.25409213 29.90536589 28 21 C14.14 20.505 14.14 20.505 0 20 C0 13.4 0 6.8 0 0 Z " fill="#275953" transform="translate(513,36)"/>
<path d="M0 0 C1.17949219 0.10183594 2.35898437 0.20367187 3.57421875 0.30859375 C4.47785156 0.39238281 5.38148438 0.47617187 6.3125 0.5625 C3.23629008 2.61330662 1.31473573 3.11743556 -2.25 3.875 C-15.03896661 7.03769763 -25.11599226 13.81909429 -32.265625 25.0390625 C-35.00181785 31.14444803 -35.50045089 37.74374409 -36.09765625 44.33984375 C-36.69171101 47.58550716 -37.08174836 48.6487908 -39.6875 50.5625 C-42.75709095 42.61767636 -41.94596712 34.39889608 -39.125 26.4375 C-33.18034793 13.13687559 -22.49302083 6.36427929 -9.6875 0.5625 C-6.14075997 -0.61974668 -3.71227005 -0.33079634 0 0 Z " fill="#FDF861" transform="translate(517.6875,3.4375)"/>
<path d="M0 0 C4.7685564 3.61752554 5.94125296 8.34827122 7 14 C8.20909388 25.50824296 6.24393905 36.26151067 -0.875 45.5625 C-3.94478167 49.07405836 -6.90869285 51.69863973 -11 54 C-12.35426158 54.89568984 -13.70842293 55.79153125 -15.0625 56.6875 C-18.31171989 58.83371273 -19.86783283 59.17356657 -24 60 C-23.01 56.7 -22.02 53.4 -21 50 C-20.01 50.99 -19.02 51.98 -18 53 C-17.51789062 52.6390625 -17.03578125 52.278125 -16.5390625 51.90625 C-15.90742187 51.4421875 -15.27578125 50.978125 -14.625 50.5 C-13.99851562 50.0359375 -13.37203125 49.571875 -12.7265625 49.09375 C-11 48 -11 48 -9 48 C-9 47.34 -9 46.68 -9 46 C-7.33333333 44.33333333 -5.66666667 42.66666667 -4 41 C-2.9171875 39.3603125 -2.9171875 39.3603125 -1.8125 37.6875 C-1.214375 36.800625 -0.61625 35.91375 0 35 C0.66 35 1.32 35 2 35 C2 34.34 2 33.68 2 33 C2.66 33 3.32 33 4 33 C4.117791 29.68780768 4.18777155 26.37616508 4.25 23.0625 C4.28351562 22.13630859 4.31703125 21.21011719 4.3515625 20.25585938 C4.43460533 14.33905766 3.63357755 10.12777816 0.86621094 4.87280273 C0 3 0 3 0 0 Z " fill="#D1C146" transform="translate(578,23)"/>
<path d="M0 0 C1.17949219 0.10183594 2.35898437 0.20367187 3.57421875 0.30859375 C4.47785156 0.39238281 5.38148438 0.47617187 6.3125 0.5625 C3.23629008 2.61330662 1.31473573 3.11743556 -2.25 3.875 C-14.401988 6.86917973 -21.4045758 12.57096061 -29.6875 21.5625 C-30.6775 21.2325 -31.6675 20.9025 -32.6875 20.5625 C-31.26294351 16.85865312 -28.88310275 14.65966929 -26.02734375 12.02734375 C-24.43641301 10.48748332 -24.43641301 10.48748332 -23.6875 7.5625 C-21.40547275 6.22596741 -19.19545631 5.06001036 -16.8125 3.9375 C-16.17441406 3.62554688 -15.53632813 3.31359375 -14.87890625 2.9921875 C-9.41137476 0.34403029 -6.05344395 -0.5394158 0 0 Z " fill="#FEF756" transform="translate(517.6875,3.4375)"/>
<path d="M0 0 C-0.66 1.65 -1.32 3.3 -2 5 C-2.92619141 4.89171875 -2.92619141 4.89171875 -3.87109375 4.78125 C-15.66285796 3.42804073 -15.66285796 3.42804073 -26.9375 6.33203125 C-30.56475004 7.50676564 -34.23297033 7.23543935 -38 7 C-34.98582154 2.2115894 -31.52953528 1.22545803 -26.25 -0.31640625 C-17.73680803 -2.04800965 -8.58322802 -0.73501185 0 0 Z " fill="#D8C43A" transform="translate(531,83)"/>
<path d="M0 0 C7.26 0 14.52 0 22 0 C17.10235517 10.38894357 12.21009223 20.76370116 7 31 C6.01 30.67 5.02 30.34 4 30 C8.62 20.76 13.24 11.52 18 2 C9.85116129 1.81017143 9.85116129 1.81017143 2 3 C-0.84874937 6.0021829 -2.01615296 9.01397266 -3 13 C-3.66 12.67 -4.32 12.34 -5 12 C-3.65731345 7.66208962 -2.06787321 4.13574643 0 0 Z " fill="#03425F" transform="translate(487,36)"/>
<path d="M0 0 C9.0695468 0.69765745 16.28893079 6.39712491 22.76171875 12.38671875 C26.47507058 16.72220283 28.26372986 21.6216004 30 27 C30.33 27.99 30.66 28.98 31 30 C31.32861165 37.06515051 31.09565123 44.01522343 30 51 C29.34 51 28.68 51 28 51 C27.67 51.66 27.34 52.32 27 53 C27.165 51.906875 27.33 50.81375 27.5 49.6875 C28.60811221 40.44779966 28.11527079 32.78785344 25 24 C24.690625 22.9275 24.38125 21.855 24.0625 20.75 C21.31075548 13.62783771 16.76908356 9.36070698 10 6 C8.68 6 7.36 6 6 6 C6 5.34 6 4.68 6 4 C4.02 3.34 2.04 2.68 0 2 C0 1.34 0 0.68 0 0 Z " fill="#E8D449" transform="translate(552,5)"/>
<path d="M0 0 C0.33 0.66 0.66 1.32 1 2 C9.415 1.505 9.415 1.505 18 1 C16 5 16 5 12.5 6.1875 C7.71507512 7.18142741 2.86702935 7.62101001 -2 8 C-1.125 2.25 -1.125 2.25 0 0 Z " fill="#CDBD49" transform="translate(534,80)"/>
<path d="M0 0 C1.91015625 0.1328125 1.91015625 0.1328125 3.91015625 1.1328125 C3.58015625 2.4528125 3.25015625 3.7728125 2.91015625 5.1328125 C1.26015625 5.1328125 -0.38984375 5.1328125 -2.08984375 5.1328125 C-2.41984375 6.7828125 -2.74984375 8.4328125 -3.08984375 10.1328125 C-4.07984375 10.4628125 -5.06984375 10.7928125 -6.08984375 11.1328125 C-7.71635897 7.87978206 -7.20437531 4.74055648 -7.08984375 1.1328125 C-5.19099279 -0.76603846 -2.51736472 0.00913744 0 0 Z " fill="#F1DC41" transform="translate(498.08984375,78.8671875)"/>
<path d="M0 0 C4.10410755 -0.05796132 8.20811016 -0.09358313 12.3125 -0.125 C13.47974609 -0.14175781 14.64699219 -0.15851563 15.84960938 -0.17578125 C16.96787109 -0.18222656 18.08613281 -0.18867187 19.23828125 -0.1953125 C20.26993408 -0.20578613 21.30158691 -0.21625977 22.36450195 -0.22705078 C25 0 25 0 28 2 C27.34 2 26.68 2 26 2 C26 2.66 26 3.32 26 4 C27.98 4.66 29.96 5.32 32 6 C28.27712915 7.24095695 27.38599349 6.5543974 23.8125 5.125 C17.85738692 2.99400365 12.42815594 2.46407331 6.16918945 2.32861328 C4.44330907 2.28084243 2.72017701 2.14810872 1 2 C0.67 1.34 0.34 0.68 0 0 Z " fill="#FEF862" transform="translate(526,3)"/>
<path d="M0 0 C0.33 0 0.66 0 1 0 C0.61896716 6.96606184 -2.37790604 12.3267373 -5.5625 18.4375 C-6.08263672 19.45521484 -6.60277344 20.47292969 -7.13867188 21.52148438 C-8.41680331 24.01911737 -9.70405813 26.51157514 -11 29 C-11.99 28.67 -12.98 28.34 -14 28 C-9.38 18.76 -4.76 9.52 0 0 Z " fill="#23565B" transform="translate(505,38)"/>
<path d="M0 0 C0 0.66 0 1.32 0 2 C2.97 2 5.94 2 9 2 C8.67 2.66 8.34 3.32 8 4 C6.700625 3.835 5.40125 3.67 4.0625 3.5 C-3.30937357 2.71428307 -9.05177801 2.37505789 -15.9375 5.33203125 C-19.56475004 6.50676564 -23.23297033 6.23543935 -27 6 C-27 5.67 -27 5.34 -27 5 C-22.545 4.505 -22.545 4.505 -18 4 C-18 3.34 -18 2.68 -18 2 C-12.12116651 -0.61281488 -6.29268272 -0.18328202 0 0 Z " fill="#D0C16C" transform="translate(520,84)"/>
<path d="M0 0 C0.99 0.33 1.98 0.66 3 1 C-0.63 9.91 -4.26 18.82 -8 28 C-8.66 27.67 -9.32 27.34 -10 27 C-7.58650007 17.64481454 -3.75743534 8.873724 0 0 Z " fill="#1D5256" transform="translate(541,57)"/>
<path d="M0 0 C0.99 0.33 1.98 0.66 3 1 C4.4788187 1.210765 5.96296852 1.38553374 7.44921875 1.53515625 C8.29677734 1.62216797 9.14433594 1.70917969 10.01757812 1.79882812 C10.89865234 1.88583984 11.77972656 1.97285156 12.6875 2.0625 C13.58017578 2.15337891 14.47285156 2.24425781 15.39257812 2.33789062 C17.59476265 2.56164199 19.79721768 2.78222601 22 3 C22 3.33 22 3.66 22 4 C21.37544922 3.98428955 20.75089844 3.9685791 20.10742188 3.95239258 C17.23837583 3.88947956 14.36947558 3.85083269 11.5 3.8125 C10.51773438 3.78736328 9.53546875 3.76222656 8.5234375 3.73632812 C2.22439665 3.67333772 -2.22593282 4.50310608 -8 7 C-11 7.1875 -11 7.1875 -13 7 C-13 6.34 -13 5.68 -13 5 C-12.31292969 4.80664062 -11.62585938 4.61328125 -10.91796875 4.4140625 C-10.01691406 4.15367188 -9.11585938 3.89328125 -8.1875 3.625 C-7.29417969 3.36976562 -6.40085937 3.11453125 -5.48046875 2.8515625 C-2.79532104 2.04733339 -2.79532104 2.04733339 0 0 Z " fill="#E4CD1D" transform="translate(509,79)"/>
<path d="M0 0 C0.33 0.66 0.66 1.32 1 2 C-3.14169927 9.24797372 -9.35084398 13.72179028 -17 17 C-17.66 17 -18.32 17 -19 17 C-18.45276317 13.62537285 -17.9451 11.91765 -16 9 C-15.01 10.485 -15.01 10.485 -14 12 C-13.27683594 11.45859375 -13.27683594 11.45859375 -12.5390625 10.90625 C-11.90742187 10.4421875 -11.27578125 9.978125 -10.625 9.5 C-9.99851562 9.0359375 -9.37203125 8.571875 -8.7265625 8.09375 C-7 7 -7 7 -5 7 C-5 6.34 -5 5.68 -5 5 C-3.37446717 3.29319053 -1.70884005 1.62339805 0 0 Z " fill="#CAB933" transform="translate(574,64)"/>
<path d="M0 0 C0.66 0 1.32 0 2 0 C2.268125 1.0725 2.53625 2.145 2.8125 3.25 C3.73636209 6.90427861 3.73636209 6.90427861 5.625 9.125 C7.38708178 11.5278388 7.24251673 13.08979925 7 16 C2.77036532 14.48941618 1.08753827 11.87685679 -1 8 C-1.30644155 4.81300783 -1.43304064 2.86608129 0 0 Z " fill="#F7EA5D" transform="translate(481,53)"/>
<path d="M0 0 C4.75148767 3.60457685 5.97628735 8.35452583 7 14 C7.39760099 20.12021519 7.37405135 26.00514691 6 32 C5.34 32 4.68 32 4 32 C4.02094727 31.44127197 4.04189453 30.88254395 4.06347656 30.30688477 C4.14766294 27.72561327 4.19897693 25.14463176 4.25 22.5625 C4.28351562 21.68400391 4.31703125 20.80550781 4.3515625 19.90039062 C4.43692299 14.11721765 3.55488039 10.02879215 0.86621094 4.89038086 C0 3 0 3 0 0 Z " fill="#C4B44E" transform="translate(578,23)"/>
<path d="M0 0 C0.66 0.33 1.32 0.66 2 1 C0.98679687 1.90492187 0.98679687 1.90492187 -0.046875 2.828125 C-1.38492187 4.02695313 -1.38492187 4.02695313 -2.75 5.25 C-3.63171875 6.03890625 -4.5134375 6.8278125 -5.421875 7.640625 C-7.06301208 9.14251408 -8.6631765 10.69139677 -10.203125 12.296875 C-12 14 -12 14 -14 14 C-12.58866056 10.33051746 -10.23913458 8.10538434 -7.4375 5.46484375 C-5.76884422 3.85570832 -5.76884422 3.85570832 -4 1 C-3.34 1 -2.68 1 -2 1 C-1.34 0.67 -0.68 0.34 0 0 Z " fill="#FFF73A" transform="translate(499,10)"/>
<path d="M0 0 C5.85272256 0.45020943 10.08220119 3.03839227 15 6 C15 6.66 15 7.32 15 8 C13.88625 7.505 13.88625 7.505 12.75 7 C9.86116688 5.77217129 9.86116688 5.77217129 6 6 C6 5.34 6 4.68 6 4 C4.02 3.34 2.04 2.68 0 2 C0 1.34 0 0.68 0 0 Z " fill="#F2DC4E" transform="translate(552,5)"/>
<path d="M0 0 C0.33 0 0.66 0 1 0 C1.09733092 7.09434233 1.10087193 13.98194143 0 21 C-0.66 21 -1.32 21 -2 21 C-2.33 21.66 -2.66 22.32 -3 23 C-2.06024943 15.32537035 -1.0277503 7.66322553 0 0 Z " fill="#DEC946" transform="translate(582,35)"/>
<path d="M0 0 C0.99 0 1.98 0 3 0 C3.33 2.97 3.66 5.94 4 9 C3.01 9.33 2.02 9.66 1 10 C-0.60725635 6.78548731 -0.05748185 3.56387464 0 0 Z " fill="#FBEC50" transform="translate(491,80)"/>
<path d="M0 0 C2.97 0 5.94 0 9 0 C5.39042389 3.2910841 2.87362847 4.54663921 -2 5 C-1.34 3.35 -0.68 1.7 0 0 Z " fill="#FEEC3A" transform="translate(515,6)"/>
<path d="M0 0 C1.93865882 6.54297353 0.502848 10.84716533 -2 17 C-2.33 17 -2.66 17 -3 17 C-2.88506243 15.10353002 -2.75760358 13.20781668 -2.625 11.3125 C-2.55539062 10.25675781 -2.48578125 9.20101562 -2.4140625 8.11328125 C-2.01239911 5.09322731 -1.25930981 2.75921946 0 0 Z " fill="#FEF56C" transform="translate(479,30)"/>
<path d="M0 0 C0.33 0 0.66 0 1 0 C1.33 4.29 1.66 8.58 2 13 C1.01 13 0.02 13 -1 13 C-1.02708567 11.39592672 -1.04643483 9.7917215 -1.0625 8.1875 C-1.07410156 7.29417969 -1.08570313 6.40085937 -1.09765625 5.48046875 C-1 3 -1 3 0 0 Z " fill="#FBF246" transform="translate(478,40)"/>
<path d="M0 0 C-1 3 -1 3 -2.99609375 4.16796875 C-3.80175781 4.50441406 -4.60742188 4.84085937 -5.4375 5.1875 C-6.24058594 5.53167969 -7.04367187 5.87585938 -7.87109375 6.23046875 C-10 7 -10 7 -12 7 C-12 6.34 -12 5.68 -12 5 C-10.37750059 4.16180842 -8.75191503 3.3295884 -7.125 2.5 C-6.22007812 2.0359375 -5.31515625 1.571875 -4.3828125 1.09375 C-2 0 -2 0 0 0 Z " fill="#BFB56F" transform="translate(566,76)"/>
<path d="M0 0 C0.99 0.33 1.98 0.66 3 1 C1.35 4.3 -0.3 7.6 -2 11 C-2.66 10.67 -3.32 10.34 -4 10 C-2.8905928 6.51329166 -1.73662334 3.22515763 0 0 Z " fill="#265A5C" transform="translate(486,38)"/>
<path d="M0 0 C4.50884026 2.31883213 6.93906776 5.06451569 10 9 C7 9 7 9 4.4375 6.75 C2.42724922 4.48202476 1.12774794 2.76810859 0 0 Z " fill="#E2D258" transform="translate(567,12)"/>
<path d="M0 0 C0.99 0.33 1.98 0.66 3 1 C-0.11016455 4.28788824 -3.01618925 6.83735988 -7 9 C-5.44499019 5.18315774 -2.96404505 2.80804268 0 0 Z " fill="#CDBF5C" transform="translate(573,68)"/>
<path d="M0 0 C-0.50603992 2.16874252 -0.99983813 3.99967627 -2 6 C-2.99 6 -3.98 6 -5 6 C-4.625 3.5625 -4.625 3.5625 -4 1 C-2 0 -2 0 0 0 Z " fill="#C7B64E" transform="translate(579,62)"/>
<path d="M0 0 C2.97 0.33 5.94 0.66 9 1 C8.34 1.66 7.68 2.32 7 3 C3.375 2.625 3.375 2.625 0 2 C0 1.34 0 0.68 0 0 Z " fill="#F9E764" transform="translate(545,3)"/>
</svg>
